<?xml version="1.0" encoding="UTF-8" standalone="no"?>
<!-- Created with Inkscape (http://www.inkscape.org/) -->

<svg
   xmlns:dc="http://purl.org/dc/elements/1.1/"
   xmlns:cc="http://creativecommons.org/ns#"
   xmlns:rdf="http://www.w3.org/1999/02/22-rdf-syntax-ns#"
   xmlns:svg="http://www.w3.org/2000/svg"
   xmlns="http://www.w3.org/2000/svg"
   xmlns:sodipodi="http://sodipodi.sourceforge.net/DTD/sodipodi-0.dtd"
   xmlns:inkscape="http://www.inkscape.org/namespaces/inkscape"
   version="1.1"
   width="2880"
   height="2880"
   id="svg2985"
   inkscape:version="0.48.2 r9819"
   sodipodi:docname="Filmkreis-logo-neu-MD_Copy.svg">
  <sodipodi:namedview
     pagecolor="#ffffff"
     bordercolor="#666666"
     borderopacity="1"
     objecttolerance="10"
     gridtolerance="10"
     guidetolerance="10"
     inkscape:pageopacity="0"
     inkscape:pageshadow="2"
     inkscape:window-width="1400"
     inkscape:window-height="975"
     id="namedview3814"
     showgrid="false"
     showguides="true"
     inkscape:zoom="0.26587205"
     inkscape:cx="1438.0134"
     inkscape:cy="1465.609"
     inkscape:window-x="-9"
     inkscape:window-y="-9"
     inkscape:window-maximized="1"
     inkscape:current-layer="svg2985">
    <inkscape:grid
       type="xygrid"
       id="grid3833" />
  </sodipodi:namedview>
  <title
     id="title3017">SFK Logo</title>
  <metadata
     id="metadata2991">
    <rdf:RDF>
      <cc:Work
         rdf:about="">
        <dc:format>image/svg+xml</dc:format>
        <dc:type
           rdf:resource="http://purl.org/dc/dcmitype/StillImage" />
        <dc:title>SFK Logo</dc:title>
      </cc:Work>
    </rdf:RDF>
  </metadata>
  <defs
     id="defs2989" />
  <path
     d="m 1993,150 0,800 -268,0 0,-470 c 0,-71.61184 -24.628,-200 -206.3472,-200 l -73.6528,0 0,965 60,0 c 20,0 45,-25 45,-45 l 0,-230 170,0 0,715 c -56.6503,0 -113.3497,0 -170,0 l 0,-230 c 0,-20 -25,-45 -45,-45 l -60,0 c 0.1534,279.5 -0.1728,550.5 0,830 0,35 40,75 75,75 l 165,0 0,235 -855,0 313,259 C 548.57563,2695.9944 32.70681,2134.0997 35,1440 37.520197,677.19002 650,40 1440,37 c 235.0175,-0.892471 435,58 553,113 z M 1025,395 C 1024.986,320.91365 952.15976,270.92059 895,275 l -215,0 345,255 z m 974,2177 c 0,-182.5229 0,-365.4771 0,-548 56.6667,0 113.3333,0 170,0 0,-238 0,-477 0,-715 87.3333,0 174.6667,0 262,0 l 0,-860 c 288.0813,286.85984 412.4112,660.0769 410,991 -4.0795,559.8913 -319.5993,1016.0177 -743.1981,1237.9539 z"
     id="path2995"
     style="opacity:1;fill:#000000"
     inkscape:connector-curvature="0"
     sodipodi:nodetypes="cccssccssccccssccsccccssccccccccccccscc" />
</svg>
